{
  "asset": { "version": "2.0", "generator": "Open Brush UnityGLTF Exporter" },
  "extensionsUsed": ["GOOGLE_tilt_brush_material"],
  "scene": 0,
  "scenes": [{ "nodes": [0] }],
  "nodes": [{ "mesh": 0 }],
  "meshes": [{ "primitives": [{
    "attributes": { "POSITION": 0, "NORMAL": 1, "COLOR_0": 2, "TEXCOORD_0": 3 },
    "indices": 4,
    "material": 0
  }] }],
  "materials": [{
    "name": "ob-TubeToonInverted",
    "extensions": { "GOOGLE_tilt_brush_material": { "guid": "9871385a-df73-4396-9e33-31e4e4930b27" } }
  }],
  "buffers": [{
    "byteLength": 150,
    "uri": "data:application/octet-stream;base64,"
  }],
  "bufferViews": [
    { "buffer": 0, "byteOffset": 0, "byteLength": 36 },
    { "buffer": 0, "byteOffset": 36, "byteLength": 36 },
    { "buffer": 0, "byteOffset": 72, "byteLength": 48 },
    { "buffer": 0, "byteOffset": 120, "byteLength": 24 },
    { "buffer": 0, "byteOffset": 144, "byteLength": 6, "target": 34963 }
  ],
  "accessors": [
    { "bufferView": 0, "componentType": 5126, "count": 3, "type": "VEC3", "min": [-0.8,-0.6,0], "max": [0.8,0.8,0] },
    { "bufferView": 1, "componentType": 5126, "count": 3, "type": "VEC3" },
    { "bufferView": 2, "componentType": 5126, "count": 3, "type": "VEC4" },
    { "bufferView": 3, "componentType": 5126, "count": 3, "type": "VEC2" },
    { "bufferView": 4, "componentType": 5123, "count": 3, "type": "SCALAR" }
  ]
}
